<?xml version="1.0" encoding="iso-8859-1"?>
<!-- Generator: Adobe Illustrator 19.0.0, SVG Export Plug-In . SVG Version: 6.00 Build 0)  -->
<svg version="1.1" id="Capa_1" xmlns="http://www.w3.org/2000/svg" x="0px"
     y="0px"
     viewBox="0 0 512 512" style="enable-background:new 0 0 512 512;" xml:space="preserve">
<path d="M144,296H80c-8.837,0-16-7.163-16-16s7.163-16,16-16h48v-96H80c-8.837,0-16-7.163-16-16s7.163-16,16-16h64
	c8.837,0,16,7.163,16,16v128C160,288.837,152.837,296,144,296z"/>
    <path d="M256,296h-32c-17.673,0-32-14.327-32-32v-96c0-17.673,14.327-32,32-32h48c8.837,0,16,7.163,16,16s-7.163,16-16,16h-48v32h32
	c17.673,0,32,14.327,32,32v32C288,281.673,273.673,296,256,296z M224,232v32h32v-32H224z"/>
    <path d="M384,296h-32c-17.673,0-32-14.327-32-32v-96c0-17.673,14.327-32,32-32h32c17.673,0,32,14.327,32,32v96
	C416,281.673,401.673,296,384,296z M352,168v96h32v-96H352z"/>
    <path d="M144,232H80c-8.837,0-16-7.163-16-16s7.163-16,16-16h64c8.837,0,16,7.163,16,16S152.837,232,144,232z"/>
    <path d="M256,424C112.448,424,0,367.776,0,296c1.294-27.41,15.428-52.607,38.144-68c6.972-5.443,17.037-4.204,22.48,2.768
	c5.443,6.972,4.204,17.037-2.768,22.48l0,0C43.249,262.887,33.753,278.587,32,296c0,45.408,92,96,224,96c8.837,0,16,7.163,16,16
	S264.837,424,256,424z"/>
    <path d="M304,421.76c-8.837,0.424-16.344-6.395-16.768-15.232s6.395-16.344,15.232-16.768C403.68,380.064,480,339.712,480,296
	c-1.753-17.413-11.249-33.113-25.856-42.752c-6.963-5.443-8.195-15.501-2.752-22.464c5.443-6.963,15.501-8.195,22.464-2.752l0,0
	C496.578,243.404,510.716,268.596,512,296c0,62.24-84.896,113.952-206.464,125.696L304,421.76z"/>
    <path d="M208,472c-8.837,0.016-16.013-7.135-16.029-15.971c-0.008-4.26,1.684-8.348,4.701-11.357L233.376,408l-36.704-36.672
	c-6.256-6.256-6.256-16.4,0-22.656s16.4-6.256,22.656,0l48,48c6.256,6.24,6.269,16.371,0.029,22.627
	c-0.01,0.01-0.019,0.019-0.029,0.029l-48,48C216.322,470.327,212.246,472.008,208,472z"/>
    <path d="M464,136c-26.51,0-48-21.49-48-48s21.49-48,48-48s48,21.49,48,48S490.51,136,464,136z M464,72c-8.837,0-16,7.163-16,16
	s7.163,16,16,16s16-7.163,16-16S472.837,72,464,72z"/>
    <g>
</g>
    <g>
</g>
    <g>
</g>
    <g>
</g>
    <g>
</g>
    <g>
</g>
    <g>
</g>
    <g>
</g>
    <g>
</g>
    <g>
</g>
    <g>
</g>
    <g>
</g>
    <g>
</g>
    <g>
</g>
    <g>
</g>
</svg>
